<svg width="1105" height="300" xmlns="http://www.w3.org/2000/svg">
 <!-- Created with Method Draw - http://github.com/duopixel/Method-Draw/ -->

 <g>
  <title>background</title>
  <rect fill="none" id="canvas_background" height="302" width="1107" y="-1" x="-1"/>
  <g display="none" overflow="visible" y="0" x="0" height="100%" width="100%" id="canvasGrid">
   <rect fill="url(#gridpattern)" stroke-width="0" y="0" x="0" height="100%" width="100%"/>
  </g>
 </g>
 <g>
  <title>Layer 1</title>
  <text font-weight="bold" stroke="#000" transform="matrix(5.095234205660999,0,0,4.965966526142729,-903.6239600734499,-146.26574671058435) " xml:space="preserve" text-anchor="start" font-family="Junction, sans-serif" font-size="24" id="svg_1" y="66.11856" x="223.54806" stroke-width="0" fill="#3dadb2">Manoj Homeo</text>
  <path id="svg_3" d="m97,6.4375" opacity="0.5" stroke-width="0" fill="#3dadb2"/>
  <path id="svg_5" d="m92,37.4375" opacity="0.5" stroke-width="0" fill="#3dadb2"/>
  <path id="svg_7" d="m128,138.5" opacity="0.5" fill-opacity="null" stroke-opacity="null" stroke-width="0" stroke="null" fill="#3dadb2"/>
  <path id="svg_9" d="m143,151.5" opacity="0.5" fill-opacity="null" stroke-opacity="null" stroke-width="0" stroke="null" fill="#3dadb2"/>
  <metadata transform="matrix(0.040160480445394775,0,0,0.040160480445394775,0,0) ">Created by potrace 1.16, written by Peter Selinger 2001-2019</metadata>
  <g stroke="null" id="svg_24">
   <g stroke="null" id="svg_13" fill="#000000" transform="matrix(0.04792542969597353,0,0,-0.044464575727461896,-5839.915641089292,-1095.5141673721585) ">
    <path stroke="#3dadb2" fill="#3dadb2" id="svg_14" d="m123926.55355,-25472.99142l0,-207l43,7c23,4 59,11 80,17l37,10l0,114l0,115l365,0l365,0l0,-115l0,-114l39,-11c22,-6 57,-11 77,-13c50,-3 52,5 53,226l1,177l-530,0l-530,0l0,-206z"/>
    <path stroke="#3dadb2" fill="#3dadb2" id="svg_15" d="m123676.55355,-26096.99142l0,-320l85,0l85,0l0,-288l0,-287l-245,-245l-245,-245l2,-285l3,-285l80,0l80,0l5,253l5,252l243,243l242,243l0,322l0,322l220,0l220,0l0,80l0,80l-310,0l-310,0l0,165l0,165l615,0l615,0l0,-165l0,-165l-90,0l-90,0l0,-401l0,-401l250,-249l250,-249l0,-610l0,-610l80,0l80,0l0,648l0,647l-250,250l-250,250l0,282l0,283l90,0l90,0l0,320l0,320l-775,0l-775,0l0,-320z"/>
    <path stroke="#3dadb2" fill="#3dadb2" id="svg_16" d="m124253.55355,-26023.99142c-9,-8 -9,-116 -1,-137c5,-13 22,-16 85,-16l79,0l0,80l0,80l-78,0c-43,0 -82,-3 -85,-7z"/>
    <path stroke="#3dadb2" fill="#3dadb2" id="svg_17" d="m124496.55355,-26096.99142l0,-81l83,3l82,3l0,75l0,75l-82,3l-83,3l0,-81z"/>
    <path stroke="#3dadb2" fill="#3dadb2" id="svg_18" d="m124738.55355,-26093.99142l3,-78l123,-3l122,-3l0,81l0,80l-125,0l-126,0l3,-77z"/>
    <path stroke="#3dadb2" fill="#3dadb2" id="svg_19" d="m124716.55355,-27121.99142l-55,-55l58,-58l57,-57l57,57l58,58l-55,55c-30,30 -57,55 -60,55c-3,0 -30,-25 -60,-55z"/>
    <path stroke="#3dadb2" fill="#3dadb2" id="svg_20" d="m124897.55355,-27285.99142c-28,-28 -51,-57 -51,-64c0,-13 90,-107 103,-107c12,0 107,93 107,104c0,6 -18,29 -38,51c-70,73 -64,72 -121,16z"/>
    <path stroke="#3dadb2" fill="#3dadb2" id="svg_21" d="m125063.55355,-27464.99142l-57,-58l69,-68l70,-69l-6,-86c-3,-48 -2,-126 2,-174l7,-87l74,0l74,0l0,213l0,212l-88,88l-88,87l-57,-58z"/>
    <path stroke="#3dadb2" fill="#3dadb2" id="svg_22" d="m123363.55355,-28232.99142c-4,-4 -7,-411 -7,-903l0,-896l113,-112l112,-113l870,1l870,2l64,61c35,33 61,56 58,50c-3,-6 19,-35 49,-65l54,-53l108,107c59,59 111,107 116,107c4,0 35,-25 68,-55c64,-58 177,-118 262,-141c30,-8 103,-14 177,-14c109,0 137,4 205,26c43,14 106,42 139,61c58,35 265,227 265,246c0,15 -181,190 -231,224c-74,51 -155,84 -257,105c-85,17 -108,18 -186,8c-49,-6 -90,-9 -92,-7c-2,2 5,39 17,83c18,67 20,99 16,214c-6,188 -41,291 -147,435c-38,52 -223,245 -234,245c-4,0 -56,-51 -117,-112c-154,-158 -196,-227 -250,-408c-14,-49 -19,-95 -19,-190c1,-148 20,-234 80,-355c42,-85 61,-111 141,-191l50,-51l-53,-51l-53,-52l-3,75l-3,75l-79,0l-80,0l0,-42c0,-39 -5,-48 -72,-115l-72,-73l-791,0l-791,0l-67,68l-67,67l-2,870l-3,870l-75,3c-42,1 -79,0 -83,-4zm2523,-740c24,-32 60,-105 83,-169c29,-81 31,-284 3,-360c-27,-75 -63,-147 -91,-180l-24,-30l-1,198l0,197l-85,0l-85,0l0,-197l-1,-198l-24,30c-28,33 -63,104 -91,180c-29,78 -26,278 4,365c33,91 75,162 140,232l56,60l51,-54c27,-30 57,-63 65,-74zm532,-794c67,-20 160,-76 215,-128l32,-30l-32,-29c-92,-84 -180,-128 -288,-140c-107,-12 -208,4 -294,47l-70,35l153,3l152,3l0,79l0,79l-157,3l-158,3l39,23c119,70 282,91 408,52z"/>
    <path stroke="#3dadb2" fill="#3dadb2" id="svg_23" d="m124001.55355,-28485.99142c-124,-31 -205,-138 -205,-272l0,-57l-54,-31c-128,-72 -175,-221 -112,-353c29,-62 90,-121 140,-138c31,-10 31,-11 31,-80l0,-69l-42,-16c-26,-10 -60,-36 -86,-65c-123,-142 -83,-344 86,-428c84,-42 220,-25 288,35c14,12 23,10 69,-19c45,-28 64,-33 127,-37c78,-3 128,11 182,51c22,17 26,17 45,3c59,-42 110,-57 187,-53c65,3 83,8 127,35l52,32l52,-32c44,-27 62,-32 127,-35c112,-5 186,33 247,127c27,41 29,52 29,140c0,87 -3,100 -27,137c-32,49 -91,100 -133,114c-30,10 -30,10 -28,82c1,61 4,74 19,77c47,9 117,70 147,126c18,32 22,57 22,130c0,82 -3,95 -29,139c-29,48 -81,93 -133,115c-27,11 -28,14 -28,90c-1,71 -4,83 -34,130c-84,130 -252,167 -382,85c-34,-21 -46,-24 -58,-15c-63,44 -97,55 -176,55c-79,-1 -114,-12 -177,-56c-13,-10 -24,-7 -56,14c-65,44 -141,57 -217,39zm102,-162c47,-18 68,-48 68,-100c0,-109 -124,-151 -190,-65c-30,40 -32,78 -5,122c29,46 76,63 127,43zm404,-12c18,-12 39,-38 47,-58c12,-31 11,-41 -1,-72c-39,-92 -155,-94 -199,-2c-21,43 -21,46 -5,80c18,38 69,75 103,75c12,0 36,-10 55,-23zm369,8c36,-18 70,-66 70,-97c0,-36 -37,-88 -75,-104c-30,-12 -40,-12 -68,0c-94,39 -102,163 -14,201c41,18 52,18 87,0zm-928,-354c28,-25 33,-36 33,-75c0,-36 -6,-51 -29,-75c-54,-57 -130,-48 -170,19c-28,48 -21,93 19,129c48,42 101,43 147,2zm390,2c24,-24 34,-88 19,-125c-13,-33 -65,-68 -103,-68c-37,0 -108,70 -108,105c0,34 24,80 52,100c31,22 112,15 140,-12zm378,-2c39,-38 47,-75 26,-117c-16,-36 -68,-74 -99,-74c-34,0 -77,31 -97,70c-23,45 -20,74 13,112c27,30 41,36 90,37c30,1 45,-6 67,-28zm386,-5c24,-24 34,-43 34,-65c0,-105 -113,-156 -183,-83c-69,72 -23,182 76,182c31,0 46,-7 73,-34zm-966,-323c92,-82 -2,-231 -112,-179c-73,35 -89,113 -34,170c44,47 100,50 146,9zm369,12c41,-21 66,-77 52,-118c-36,-102 -160,-114 -205,-20c-45,94 58,188 153,138zm389,-1c27,-19 52,-65 52,-96c0,-66 -74,-118 -142,-100c-37,9 -78,61 -78,99c0,60 52,113 110,113c20,0 46,-7 58,-16zm-975,-325c37,-20 56,-46 62,-86c16,-106 -115,-164 -187,-83c-76,84 25,221 125,169zm406,-17c26,-22 34,-37 38,-74c5,-44 3,-50 -30,-83c-53,-53 -129,-46 -167,17c-24,40 -25,71 -4,107c38,64 109,78 163,33zm372,11c43,-26 64,-77 50,-123c-15,-49 -41,-71 -93,-77c-49,-6 -87,17 -114,68c-20,40 -4,89 39,124c37,29 77,32 118,8zm385,1c58,-39 70,-111 25,-164c-26,-32 -34,-35 -81,-35c-44,0 -55,4 -76,28c-46,54 -44,111 8,159c35,33 84,37 124,12z"/>
   </g>
  </g>
 </g>
</svg>